<?xml version="1.0" standalone="no"?>
<!DOCTYPE svg PUBLIC "-//W3C//DTD SVG 20010904//EN"
 "http://www.w3.org/TR/2001/REC-SVG-20010904/DTD/svg10.dtd">
<svg version="1.0" xmlns="http://www.w3.org/2000/svg"
 width="260.000000pt" height="260.000000pt" viewBox="0 0 260.000000 260.000000"
 preserveAspectRatio="xMidYMid meet">
<metadata>
Created by potrace 1.11, written by Peter Selinger 2001-2013
</metadata>
<g transform="translate(0.000000,260.000000) scale(0.100000,-0.100000)"
fill="#000000" stroke="none">
<path d="M935 1700 c-109 -39 -110 -40 -113 -73 -3 -33 -2 -34 49 -45 29 -7
58 -17 66 -23 10 -9 13 -67 13 -268 0 -252 -7 -317 -34 -340 -8 -7 -33 -15
-57 -19 -40 -7 -44 -10 -47 -38 -3 -29 0 -32 35 -37 49 -9 366 -9 387 -1 10 4
16 18 16 40 0 33 -1 33 -51 40 -82 11 -79 1 -79 294 l0 258 48 30 c149 97 251
99 303 9 21 -37 24 -57 27 -177 2 -74 -1 -187 -6 -250 -10 -103 -13 -117 -35
-136 -14 -12 -46 -25 -71 -28 -44 -7 -46 -8 -46 -42 l0 -34 220 0 220 0 6 26
c9 35 -7 47 -63 51 -78 4 -78 3 -65 235 13 251 5 336 -41 427 -26 52 -40 69
-76 88 -88 46 -206 23 -336 -65 -38 -26 -73 -48 -77 -50 -5 -2 -8 25 -8 60 0
93 -6 108 -44 107 -17 0 -80 -18 -141 -39z"/>
</g>
</svg>
