<?xml version="1.0" standalone="no"?>
<!DOCTYPE svg PUBLIC "-//W3C//DTD SVG 20010904//EN"
 "http://www.w3.org/TR/2001/REC-SVG-20010904/DTD/svg10.dtd">
<svg version="1.0" xmlns="http://www.w3.org/2000/svg"
 width="260.000000pt" height="260.000000pt" viewBox="0 0 260.000000 260.000000"
 preserveAspectRatio="xMidYMid meet">
<metadata>
Created by potrace 1.11, written by Peter Selinger 2001-2013
</metadata>
<g transform="translate(0.000000,260.000000) scale(0.100000,-0.100000)"
fill="#000000" stroke="none">
<path d="M650 2131 c-96 -33 -202 -67 -235 -76 -33 -10 -63 -23 -67 -29 -10
-15 -10 -88 1 -104 4 -7 41 -20 82 -28 41 -8 94 -25 119 -37 39 -19 46 -27 52
-62 11 -67 9 -975 -3 -1062 -19 -139 -65 -187 -190 -199 -40 -4 -69 -12 -76
-22 -17 -21 -16 -64 1 -87 13 -18 32 -19 427 -17 283 2 417 6 426 13 17 14 17
80 1 101 -9 10 -38 18 -87 22 -102 9 -136 27 -158 84 -16 43 -18 90 -18 552
l0 505 80 57 c96 69 239 143 315 163 147 39 270 -8 330 -125 49 -96 55 -154
53 -485 -2 -315 -14 -535 -34 -609 -23 -89 -82 -128 -209 -143 -69 -7 -80 -16
-80 -62 0 -75 -25 -72 450 -69 l425 3 10 38 c7 30 5 45 -6 65 -14 25 -18 26
-105 27 -166 1 -172 14 -152 365 20 366 18 713 -5 820 -42 194 -124 319 -249
376 -56 26 -74 29 -163 28 -86 0 -113 -4 -197 -33 -104 -36 -214 -97 -344
-191 -45 -33 -87 -60 -92 -60 -21 0 -32 67 -32 186 0 183 -4 185 -270 95z"/>
</g>
</svg>
